{"asset": {"version": "2.0", "generator": "FORGE isolated source audit fixture"}, "scene": 0, "scenes": [{"nodes": [0]}], "nodes": [{"name": "Root", "children": [1]}, {"name": "Joint", "translation": [0, 1, 0]}], "buffers": [{"byteLength": 32, "uri": "data:application/octet-stream;base64,"}], "bufferViews": [{"buffer": 0, "byteOffset": 0, "byteLength": 8}, {"buffer": 0, "byteOffset": 8, "byteLength": 24}], "accessors": [{"bufferView": 0, "componentType": 5126, "count": 2, "type": "SCALAR", "min": [0], "max": [1]}, {"bufferView": 1, "componentType": 5126, "count": 2, "type": "VEC3"}], "animations": [{"name": "Lift", "samplers": [{"input": 0, "output": 1, "interpolation": "LINEAR"}], "channels": [{"sampler": 0, "target": {"node": 1, "path": "translation"}}]}]}