{
  "asset": {
    "version": "2.0",
    "generator": "FORGE original Rendering walkthrough"
  },
  "extensionsUsed": [
    "KHR_lights_punctual",
    "KHR_materials_variants"
  ],
  "extensions": {
    "KHR_lights_punctual": {
      "lights": [
        {
          "name": "Sun",
          "type": "directional",
          "color": [
            1,
            0.95,
            0.85
          ],
          "intensity": 3
        }
      ]
    },
    "KHR_materials_variants": {
      "variants": [
        {
          "name": "Copper"
        }
      ]
    }
  },
  "buffers": [
    {
      "uri": "data:application/octet-stream;base64,",
      "byteLength": 948
    }
  ],
  "bufferViews": [
    {
      "buffer": 0,
      "byteOffset": 0,
      "byteLength": 288,
      "target": 34962
    },
    {
      "buffer": 0,
      "byteOffset": 288,
      "byteLength": 288,
      "target": 34962
    },
    {
      "buffer": 0,
      "byteOffset": 576,
      "byteLength": 192,
      "target": 34962
    },
    {
      "buffer": 0,
      "byteOffset": 768,
      "byteLength": 72,
      "target": 34963
    },
    {
      "buffer": 0,
      "byteOffset": 840,
      "byteLength": 48,
      "target": 34962
    },
    {
      "buffer": 0,
      "byteOffset": 888,
      "byteLength": 48,
      "target": 34962
    },
    {
      "buffer": 0,
      "byteOffset": 936,
      "byteLength": 12,
      "target": 34963
    }
  ],
  "accessors": [
    {
      "bufferView": 0,
      "componentType": 5126,
      "count": 24,
      "type": "VEC3",
      "min": [
        -0.75,
        -0.75,
        -0.75
      ],
      "max": [
        0.75,
        0.75,
        0.75
      ]
    },
    {
      "bufferView": 1,
      "componentType": 5126,
      "count": 24,
      "type": "VEC3",
      "min": [
        -1,
        -1,
        -1
      ],
      "max": [
        1,
        1,
        1
      ]
    },
    {
      "bufferView": 2,
      "componentType": 5126,
      "count": 24,
      "type": "VEC2"
    },
    {
      "bufferView": 3,
      "componentType": 5123,
      "count": 36,
      "type": "SCALAR"
    },
    {
      "bufferView": 4,
      "componentType": 5126,
      "count": 4,
      "type": "VEC3",
      "min": [
        -4,
        0,
        -4
      ],
      "max": [
        4,
        0,
        4
      ]
    },
    {
      "bufferView": 5,
      "componentType": 5126,
      "count": 4,
      "type": "VEC3",
      "min": [
        0,
        1,
        0
      ],
      "max": [
        0,
        1,
        0
      ]
    },
    {
      "bufferView": 6,
      "componentType": 5123,
      "count": 6,
      "type": "SCALAR"
    }
  ],
  "images": [
    {
      "uri": "checker.png"
    }
  ],
  "samplers": [
    {
      "magFilter": 9729,
      "minFilter": 9987,
      "wrapS": 10497,
      "wrapT": 10497
    }
  ],
  "textures": [
    {
      "source": 0,
      "sampler": 0
    }
  ],
  "materials": [
    {
      "name": "Checker",
      "pbrMetallicRoughness": {
        "baseColorTexture": {
          "index": 0
        },
        "metallicFactor": 0,
        "roughnessFactor": 0.55
      }
    },
    {
      "name": "Copper",
      "pbrMetallicRoughness": {
        "baseColorFactor": [
          0.9,
          0.3,
          0.08,
          1
        ],
        "metallicFactor": 0.8,
        "roughnessFactor": 0.3
      }
    },
    {
      "name": "Floor",
      "pbrMetallicRoughness": {
        "baseColorFactor": [
          0.24,
          0.28,
          0.32,
          1
        ],
        "metallicFactor": 0,
        "roughnessFactor": 0.8
      }
    }
  ],
  "meshes": [
    {
      "name": "Cube",
      "primitives": [
        {
          "attributes": {
            "POSITION": 0,
            "NORMAL": 1,
            "TEXCOORD_0": 2
          },
          "indices": 3,
          "material": 0,
          "extensions": {
            "KHR_materials_variants": {
              "mappings": [
                {
                  "material": 1,
                  "variants": [
                    0
                  ]
                }
              ]
            }
          }
        }
      ]
    },
    {
      "name": "Floor",
      "primitives": [
        {
          "attributes": {
            "POSITION": 4,
            "NORMAL": 5
          },
          "indices": 6,
          "material": 2
        }
      ]
    }
  ],
  "cameras": [
    {
      "name": "Game camera",
      "type": "perspective",
      "perspective": {
        "yfov": 0.8726646259971648,
        "znear": 0.05,
        "zfar": 100
      }
    }
  ],
  "nodes": [
    {
      "name": "Checker cube",
      "mesh": 0,
      "translation": [
        0,
        0.75,
        0
      ]
    },
    {
      "name": "Floor",
      "mesh": 1
    },
    {
      "name": "Game camera",
      "camera": 0,
      "translation": [
        0,
        3,
        7
      ],
      "rotation": [
        -0.15487323641406822,
        0,
        0,
        0.9879343503708291
      ]
    },
    {
      "name": "Sun",
      "rotation": [
        -0.43496553411123023,
        0,
        0,
        0.9004471023526769
      ],
      "extensions": {
        "KHR_lights_punctual": {
          "light": 0
        }
      }
    }
  ],
  "scenes": [
    {
      "name": "Rendering walkthrough",
      "nodes": [
        0,
        1,
        2,
        3
      ]
    }
  ],
  "scene": 0
}
